<?xml version="1.0" encoding="iso-8859-1"?>
<!-- Generator: Adobe Illustrator 19.1.0, SVG Export Plug-In . SVG Version: 6.00 Build 0)  -->
<svg version="1.1" id="Capa_1" xmlns="http://www.w3.org/2000/svg" xmlns:xlink="http://www.w3.org/1999/xlink" x="0px" y="0px"
	 viewBox="0 0 67 67" style="enable-background:new 0 0 67 67;" xml:space="preserve">
<g>
	<g>
		<path d="M33.5,0C32.119,0,31,1.119,31,2.5v17c0,1.381,1.119,2.5,2.5,2.5s2.5-1.119,2.5-2.5v-17C36,1.119,34.881,0,33.5,0z"/>
		<path d="M33.5,45c-1.381,0-2.5,1.119-2.5,2.5v17c0,1.381,1.119,2.5,2.5,2.5s2.5-1.119,2.5-2.5v-17C36,46.119,34.881,45,33.5,45z"
			/>
		<path d="M22,33.619c0-1.381-1.119-2.5-2.5-2.5h-17c-1.381,0-2.5,1.119-2.5,2.5c0,1.381,1.119,2.5,2.5,2.5h17
			C20.881,36.119,22,35,22,33.619z"/>
		<path d="M64.5,31.119h-17c-1.381,0-2.5,1.119-2.5,2.5c0,1.381,1.119,2.5,2.5,2.5h17c1.381,0,2.5-1.119,2.5-2.5
			C67,32.238,65.881,31.119,64.5,31.119z"/>
		<path d="M14.079,9.6c-0.977-0.977-2.559-0.977-3.535,0s-0.977,2.559,0,3.535l12.021,12.021c0.488,0.488,1.128,0.732,1.768,0.732
			s1.279-0.244,1.768-0.732c0.977-0.977,0.977-2.559,0-3.535L14.079,9.6z"/>
		<path d="M45.898,41.42c-0.977-0.977-2.559-0.977-3.535,0c-0.976,0.977-0.977,2.559,0,3.535l12.021,12.021
			c0.488,0.488,1.128,0.732,1.768,0.732s1.279-0.244,1.768-0.732c0.977-0.977,0.977-2.559,0-3.535L45.898,41.42z"/>
		<path d="M22.564,42.127l-12.02,12.02c-0.977,0.977-0.977,2.559,0,3.535c0.488,0.488,1.128,0.732,1.768,0.732
			s1.279-0.244,1.768-0.732l12.02-12.02c0.977-0.977,0.977-2.559,0-3.535C25.123,41.151,23.541,41.15,22.564,42.127z"/>
		<path d="M42.363,25.863c0.488,0.488,1.128,0.732,1.768,0.732s1.279-0.244,1.768-0.732L57.92,13.842
			c0.977-0.977,0.977-2.559,0-3.535s-2.559-0.977-3.535,0L42.363,22.328C41.387,23.305,41.387,24.887,42.363,25.863z"/>
	</g>
</g>
<g>
</g>
<g>
</g>
<g>
</g>
<g>
</g>
<g>
</g>
<g>
</g>
<g>
</g>
<g>
</g>
<g>
</g>
<g>
</g>
<g>
</g>
<g>
</g>
<g>
</g>
<g>
</g>
<g>
</g>
</svg>
